<?xml version="1.0" encoding="UTF-8" standalone="no"?>
<!-- Created with Inkscape (http://www.inkscape.org/) -->

<svg
   width="210mm"
   height="210mm"
   viewBox="0 0 210 210"
   version="1.1"
   id="svg1"
   sodipodi:docname="kimun.svg"
   inkscape:version="1.4.2 (f4327f4, 2025-05-13)"
   xmlns:inkscape="http://www.inkscape.org/namespaces/inkscape"
   xmlns:sodipodi="http://sodipodi.sourceforge.net/DTD/sodipodi-0.dtd"
   xmlns="http://www.w3.org/2000/svg"
   xmlns:svg="http://www.w3.org/2000/svg">
  <sodipodi:namedview
     id="namedview1"
     pagecolor="#ffffff"
     bordercolor="#000000"
     borderopacity="0.25"
     inkscape:showpageshadow="2"
     inkscape:pageopacity="0.0"
     inkscape:pagecheckerboard="0"
     inkscape:deskcolor="#d1d1d1"
     inkscape:document-units="px"
     inkscape:zoom="0.27338883"
     inkscape:cx="5.4866909"
     inkscape:cy="647.42952"
     inkscape:window-width="1920"
     inkscape:window-height="1112"
     inkscape:window-x="-8"
     inkscape:window-y="-8"
     inkscape:window-maximized="1"
     inkscape:current-layer="layer1" />
  <defs
     id="defs1" />
  <g
     inkscape:label="Layer 1"
     inkscape:groupmode="layer"
     id="layer1">
    <g
       id="g12"
       transform="translate(-0.69427892,-2.4292384)"
       style="stroke:#ffffff;stroke-opacity:1;stroke-linejoin:round">
      <path
         id="text1"
         style="font-weight:bold;font-size:117.359px;font-family:Lato;-inkscape-font-specification:'Lato Bold';fill:#234143;stroke:#ffffff;stroke-width:1.04379;stroke-linejoin:round;stroke-dasharray:none;stroke-opacity:1"
         d="M 49.486293,61.358512 V 154.17918 H 76.45242 v -38.74274 h 8.520823 c 3.140978,0 5.54619,0.36751 7.216921,1.10262 1.670733,0.73513 3.14161,2.00492 4.411373,3.8093 l 30.415843,42.94637 c 1.06928,1.73755 2.37287,3.07496 3.90994,4.01058 1.6039,0.86877 4.01,1.30301 7.21781,1.30301 h 23.75713 l -39.73915,-57.28221 c -1.60389,-2.33903 -3.3079,-4.21035 -5.11231,-5.61376 -1.73754,-1.47024 -3.70853,-2.60655 -5.91389,-3.40851 3.07413,-1.53706 6.04794,-4.143377 8.92161,-7.819002 L 146.90131,61.358512 H 116.47767 L 93.393427,90.575786 c -1.202928,1.53707 -2.64,2.673383 -4.310732,3.408511 -1.670732,0.668282 -3.776066,1.00197 -6.315579,1.00197 H 76.45242 V 61.358512 Z"
         sodipodi:nodetypes="ccccsscccscccccccccsccc" />
      <rect
         style="fill:#d79921;fill-opacity:1;stroke:#ffffff;stroke-width:1.07723;stroke-linejoin:round;stroke-dasharray:none;stroke-opacity:1"
         id="rect4"
         width="27.119736"
         height="27.119736"
         x="49.48653"
         y="28.055283" />
      <path
         id="rect4-8"
         style="fill:#d79921;fill-opacity:1;stroke:#ffffff;stroke-width:1.07723;stroke-linejoin:round;stroke-dasharray:none;stroke-opacity:1"
         d="m 117.5549,28.055282 h 29.34641 V 55.175018 H 117.5549 Z"
         sodipodi:nodetypes="ccccc" />
      <path
         id="rect11"
         style="fill:#d79921;fill-opacity:1;stroke:#ffffff;stroke-width:1.04378;stroke-linejoin:round;stroke-dasharray:none;stroke-opacity:1"
         d="M 49.486529,159.6834 63.046396,186.80319 76.606264,159.6834 Z" />
    </g>
  </g>
</svg>
